<?xml version="1.0" encoding="utf-8"?>
<!-- Generator: Adobe Illustrator 23.0.3, SVG Export Plug-In . SVG Version: 6.00 Build 0)  -->
<svg version="1.2" baseProfile="tiny" id="Layer_1" xmlns="http://www.w3.org/2000/svg" xmlns:xlink="http://www.w3.org/1999/xlink"
	 x="0px" y="0px" viewBox="0 0 100 100" xml:space="preserve">
<path fill="#FFFFFF" d="M100,34.3c0-0.2-0.1-0.4-0.2-0.6c0-0.1-0.1-0.1-0.1-0.2c0-0.1-0.1-0.1-0.1-0.2c0,0-0.1-0.1-0.2-0.2
	c-0.1,0-0.1-0.1-0.2-0.1c0,0-0.1,0-0.1-0.1l-12.2-7.9v-14c0-1.4-1.2-2.6-2.6-2.6H61.2l-10-6.4c-0.6-0.4-1.3-0.4-1.9,0L39.2,8.6H15.7
	c-1.4,0-2.6,1.2-2.6,2.6v14.1L0.9,33c0,0-0.1,0-0.1,0.1c-0.1,0-0.1,0.1-0.2,0.1c-0.1,0.1-0.2,0.2-0.3,0.3c-0.1,0.1-0.2,0.2-0.2,0.4
	c0,0.1-0.1,0.2-0.1,0.3C0,34.2,0,34.4,0,34.5v61.8c0,0.2,0,0.3,0.1,0.5c0,0.1,0.1,0.2,0.1,0.3c0.2,0.3,0.4,0.6,0.7,0.8
	C1.1,98,1.2,98,1.4,98.1c0,0,0.1,0,0.2,0c0.1,0,0.2,0,0.2,0h96.5c0.1,0,0.2,0,0.2,0c0.1,0,0.1,0,0.2,0c0.2,0,0.3-0.1,0.5-0.2
	c0.1-0.1,0.3-0.2,0.4-0.3c0,0,0.1-0.1,0.1-0.1c0.1-0.1,0.2-0.3,0.3-0.5c0,0,0,0,0-0.1c0,0,0-0.1,0-0.1c0-0.2,0.1-0.3,0.1-0.5V34.5
	C100,34.5,100,34.4,100,34.3z"/>
<g>
	<polygon fill="#5587C6" points="76.1,22.4 76.1,19.9 72.2,19.9 28.1,19.9 24.8,19.9 23.1,19.9 23.1,20.9 23.1,23 23.1,26 76.1,26 	
		"/>
	<polygon fill="#5587C6" points="63.2,32.8 63.2,29.6 23.1,29.6 23.1,32.8 23.1,35.8 63.2,35.8 	"/>
	<polygon fill="#5587C6" points="65.2,32.8 65.2,35.8 76.1,35.8 76.1,32.8 76.1,29.6 65.2,29.6 	"/>
	<rect x="48.2" y="39.4" fill="#5587C6" width="27.9" height="6.1"/>
	<rect x="23.1" y="39.4" fill="#5587C6" width="21.9" height="6.1"/>
	<path fill="#5587C6" d="M100,34.3c0-0.2-0.1-0.4-0.2-0.6c0-0.1-0.1-0.1-0.1-0.2c0-0.1-0.1-0.1-0.1-0.2c0,0-0.1-0.1-0.2-0.2
		c-0.1,0-0.1-0.1-0.2-0.1c0,0-0.1,0-0.1-0.1l-12.2-7.9v-14c0-1.4-1.2-2.6-2.6-2.6H61.2l-10-6.4c-0.6-0.4-1.3-0.4-1.9,0L39.2,8.6
		H15.7c-1.4,0-2.6,1.2-2.6,2.6v14.1L0.9,33c0,0-0.1,0-0.1,0.1c-0.1,0-0.1,0.1-0.2,0.1c-0.1,0.1-0.2,0.2-0.3,0.3
		c-0.1,0.1-0.2,0.2-0.2,0.4c0,0.1-0.1,0.2-0.1,0.3C0,34.2,0,34.4,0,34.5v0v61.8v0c0,0.2,0,0.3,0.1,0.5c0,0.1,0.1,0.2,0.1,0.3
		c0.2,0.3,0.4,0.6,0.7,0.8C1.1,98,1.2,98,1.4,98.1c0,0,0.1,0,0.2,0c0.1,0,0.2,0,0.2,0h96.5c0.1,0,0.2,0,0.2,0c0.1,0,0.1,0,0.2,0
		c0.2,0,0.3-0.1,0.5-0.2c0.1-0.1,0.3-0.2,0.4-0.3c0,0,0.1-0.1,0.1-0.1c0.1-0.1,0.2-0.3,0.3-0.5c0,0,0,0,0-0.1c0,0,0-0.1,0-0.1
		c0-0.2,0.1-0.3,0.1-0.5V34.6v0C100,34.5,100,34.4,100,34.3z M96.5,93.1l-12.2-7.8h0l-2.5-1.6h0L79.3,82h0L53.6,65.5l15.8-10.2
		l6.7-4.4l7.6-4.9l1.6-1l1.6-1l9.6-6.2V93.1z M3.5,37.8l9.6,6.1l1.6,1l1.6,1l6.8,4.3l7.9,5.1L47,65.4L20.9,82l-2.5,1.6l-2.5,1.6
		L3.5,93.1V37.8z M86.9,39.8v-3.4h5.3L86.9,39.8z M92.2,32.8h-5.4v-3.5L92.2,32.8z M50.3,5.7l4.4,2.9h-8.9L50.3,5.7z M16.3,11.8
		h17.8h6.6h19h6.5h17.4v11.2v4.2v5.5v3.5v5.5l-11.4,7.4H60.5v6.1h2.3l-12.5,8.1l-12.7-8.1h21.1v-6.1H28l-11.7-7.4v-5.4v-3.5v-5.4
		v-4.2V11.8z M13.1,29.4v3.4H7.8L13.1,29.4z M13.1,36.3v3.4l-5.3-3.4H13.1z M7.8,94.6l14.6-9.3l2.5-1.6l2.5-1.6l22.8-14.5h0L72.8,82
		h0l2.5,1.6h0l2.5,1.6h0l14.5,9.3H7.8z"/>
</g>
</svg>
