<?xml version="1.0" encoding="utf-8"?>
<!-- Generator: Adobe Illustrator 23.0.3, SVG Export Plug-In . SVG Version: 6.00 Build 0)  -->
<svg version="1.2" baseProfile="tiny" id="Layer_1" xmlns="http://www.w3.org/2000/svg" xmlns:xlink="http://www.w3.org/1999/xlink"
	 x="0px" y="0px" viewBox="0 0 100 100" xml:space="preserve">
<g>
	<path fill="#FFFFFF" d="M50,58.4c1,0,2-0.5,2.6-1.3c1.9-2.5,18.9-24.7,18.9-35.6C71.5,9.7,61.9,0,50,0C38.1,0,28.5,9.7,28.5,21.5
		c0,10.9,17,33.1,18.9,35.6C48,57.9,49,58.4,50,58.4z M43.2,21.8c0-3.7,3-6.8,6.8-6.8c3.7,0,6.8,3,6.8,6.8c0,3.7-3,6.8-6.8,6.8
		C46.3,28.6,43.2,25.5,43.2,21.8z"/>
	<path fill="#FFFFFF" d="M86.8,87L72.7,66.8c-0.4-0.5-0.9-0.8-1.6-0.8H28.9c-0.6,0-1.2,0.3-1.6,0.8L13.2,87
		c-0.5,0.7-0.5,1.7,0.1,2.3c0.6,0.7,1.5,0.9,2.3,0.5c2-1,4.1-1.4,6.2-1.4c6.7,0,12.1,4.4,12.1,9.7c0,1.1,0.9,1.9,1.9,1.9
		s1.9-0.9,1.9-1.9c0-5.4,5.4-9.7,12.1-9.7s12.1,4.4,12.1,9.7c0,1.1,0.9,1.9,1.9,1.9c1.1,0,1.9-0.9,1.9-1.9c0-5.4,5.4-9.7,12.1-9.7
		c2.2,0,4.3,0.5,6.2,1.4c0.8,0.4,1.7,0.2,2.3-0.5C87.2,88.6,87.3,87.7,86.8,87z"/>
</g>
<g>
	<path fill="#5588C7" d="M50,58.4c1,0,2-0.5,2.6-1.3c1.9-2.5,18.9-24.7,18.9-35.6C71.5,9.7,61.9,0,50,0C38.1,0,28.5,9.7,28.5,21.5
		c0,10.9,17,33.1,18.9,35.6C48,57.9,49,58.4,50,58.4z M50,3.3c10.1,0,18.3,8.2,18.3,18.3C68.3,31.6,50,55.1,50,55.1
		S31.7,31.6,31.7,21.5C31.7,11.5,39.9,3.3,50,3.3z M60,21.8c0-5.5-4.5-10-10-10s-10,4.5-10,10s4.5,10,10,10S60,27.4,60,21.8z
		 M43.2,21.8c0-3.7,3-6.8,6.8-6.8c3.7,0,6.8,3,6.8,6.8c0,3.7-3,6.8-6.8,6.8C46.3,28.6,43.2,25.5,43.2,21.8z M86.8,87L72.7,66.8
		c-0.4-0.5-0.9-0.8-1.6-0.8H28.9c-0.6,0-1.2,0.3-1.6,0.8L13.2,87c-0.5,0.7-0.5,1.7,0.1,2.3c0.6,0.7,1.5,0.9,2.3,0.5
		c2-1,4.1-1.4,6.2-1.4c6.7,0,12.1,4.4,12.1,9.7c0,1.1,0.9,1.9,1.9,1.9s1.9-0.9,1.9-1.9c0-5.4,5.4-9.7,12.1-9.7
		c6.7,0,12.1,4.4,12.1,9.7c0,1.1,0.9,1.9,1.9,1.9c1.1,0,1.9-0.9,1.9-1.9c0-5.4,5.4-9.7,12.1-9.7c2.2,0,4.3,0.5,6.2,1.4
		c0.8,0.4,1.7,0.2,2.3-0.5C87.2,88.6,87.3,87.7,86.8,87z M78.1,84.5c-6.1,0-11.4,2.9-14.1,7.1c-2.7-4.2-8-7.1-14.1-7.1
		s-11.4,2.9-14.1,7.1c-2.7-4.2-8-7.1-14.1-7.1c-0.8,0-1.6,0.1-2.4,0.2l10.4-14.9h40.2l10.4,14.9C79.7,84.6,78.9,84.5,78.1,84.5z"/>
</g>
<path fill="#FFFFFF" stroke="#5588C7" stroke-width="3.642" stroke-linecap="round" stroke-linejoin="round" stroke-miterlimit="10" d="
	M35.9,98.1C35.9,98.1,35.9,98.1,35.9,98.1C35.9,98.1,35.9,98.1,35.9,98.1L35.9,98.1z"/>
<path fill="#FFFFFF" stroke="#5588C7" stroke-width="3.642" stroke-linecap="round" stroke-linejoin="round" stroke-miterlimit="10" d="
	M64.1,98.1C64.1,98.1,64.1,98.1,64.1,98.1C64.1,98.1,64.1,98.1,64.1,98.1L64.1,98.1z"/>
<polygon fill="#FFFFFF" stroke="#5588C7" stroke-width="3.642" stroke-linecap="round" stroke-linejoin="round" stroke-miterlimit="10" points="
	7.8,98.1 7.8,98.1 7.8,98.1 "/>
<polygon fill="#FFFFFF" stroke="#5588C7" stroke-width="3.642" stroke-linecap="round" stroke-linejoin="round" stroke-miterlimit="10" points="
	92.2,98.1 92.2,98.1 92.2,98.1 "/>
</svg>
