<?xml version="1.0" encoding="utf-8"?>
<!-- Generator: Adobe Illustrator 23.0.3, SVG Export Plug-In . SVG Version: 6.00 Build 0)  -->
<svg version="1.2" baseProfile="tiny" id="Layer_1" xmlns="http://www.w3.org/2000/svg" xmlns:xlink="http://www.w3.org/1999/xlink"
	 x="0px" y="0px" viewBox="0 0 100 100" xml:space="preserve">
<path fill="#FFFFFF" d="M88.2,83.2c-0.1-0.3-0.3-0.5-0.6-0.6L50.1,65.1c-0.6-0.3-1.3,0-1.5,0.6c-1,2.1-1.6,4.2-1.9,6.4
	C35.8,71.9,26.8,63,25.9,51.6c1.7-0.3,3.3-0.8,4.9-1.5c0.6-0.3,0.8-0.9,0.6-1.5l-17-37.8c-0.1-0.3-0.4-0.5-0.6-0.6
	c-0.3-0.1-0.6-0.1-0.9,0C1.9,15.1-3,28.1,1.9,39.1c0.1,0.2,0.2,0.3,0.2,0.5c0.1,30.3,26.6,55,59.6,56.2c2.1,0.7,4.3,1,6.6,1
	c2.5,0,5.1-0.4,7.5-1.3c5.5-2,9.9-6,12.3-11.3C88.3,83.8,88.3,83.5,88.2,83.2z"/>
<path fill="#5588C7" d="M97.6,54c-1.2,0-2.2-0.9-2.4-2.1c-1.9-13.5-9-25.4-19.8-33.6S51.1,6.7,37.6,8.6c-1.3,0.2-2.5-0.7-2.7-2.1
	c-0.2-1.3,0.7-2.5,2.1-2.7c14.8-2.1,29.5,1.7,41.4,10.7c11.9,9,19.6,22,21.7,36.8c0.2,1.3-0.7,2.5-2.1,2.7C97.8,54,97.7,54,97.6,54z
	"/>
<g>
	<path fill="#5588C7" d="M81,56.4c-1.2,0-2.2-0.9-2.4-2.1c-2.6-18.7-20-31.8-38.8-29.2c-1.3,0.2-2.5-0.7-2.7-2.1
		c-0.2-1.3,0.7-2.5,2.1-2.7c21.4-3,41.2,11.9,44.2,33.3c0.2,1.3-0.7,2.5-2.1,2.7C81.2,56.4,81.1,56.4,81,56.4z"/>
</g>
<g>
	<path fill="#5588C7" d="M64.5,58.8c-1.2,0-2.2-0.9-2.4-2.1C61.5,52,59,47.9,55.3,45c-3.8-2.8-8.4-4-13.1-3.4
		c-1.3,0.2-2.5-0.7-2.7-2.1c-0.2-1.3,0.7-2.5,2.1-2.7c6-0.8,11.9,0.7,16.7,4.3c4.8,3.6,7.9,8.9,8.7,14.8c0.2,1.3-0.7,2.5-2.1,2.7
		C64.7,58.8,64.6,58.8,64.5,58.8z"/>
</g>
<path fill="#5588C7" d="M88.2,83.2c-0.1-0.3-0.3-0.5-0.6-0.6L50.1,65.1c-0.6-0.3-1.3,0-1.5,0.6c-1,2.1-1.6,4.2-1.9,6.4
	C35.8,71.9,26.8,63,25.9,51.6c1.7-0.3,3.3-0.8,4.9-1.5c0.6-0.3,0.8-0.9,0.6-1.5l-17-37.8c-0.1-0.3-0.4-0.5-0.6-0.6
	c-0.3-0.1-0.6-0.1-0.9,0C1.9,15.1-3,28.1,1.9,39.1c0.1,0.2,0.2,0.3,0.2,0.5c0.1,30.3,26.6,55,59.6,56.2c2.1,0.7,4.3,1,6.6,1
	c2.5,0,5.1-0.4,7.5-1.3c5.5-2,9.9-6,12.3-11.3C88.3,83.8,88.3,83.5,88.2,83.2z M4.6,43.5c4.2,5.3,10.6,8.4,17.3,8.4
	c0.6,0,1.2,0,1.8-0.1c1,12.5,10.9,22.3,22.9,22.5c-0.2,7.3,3.4,14.4,9.6,18.6C28.5,89.5,6.8,69,4.6,43.5z M85.6,84.2
	c-2.3,4.2-6,7.4-10.5,9.1c-4.9,1.8-10.2,1.6-15-0.6c-9.4-4.4-13.7-15.4-10-24.9L85.6,84.2z M28.8,48.4c-4.5,1.7-9.4,1.7-13.9,0
	C10,46.5,6.2,42.9,4,38.1c-4.3-9.5-0.3-20.6,8.8-25.4L28.8,48.4z"/>
</svg>
