<svg xmlns="http://www.w3.org/2000/svg" viewBox="0 0 65.403 40.857">
  <defs>
    <style>
      .cls-1 {
        fill: #ededed;
      }

      .cls-2, .cls-6 {
        fill: #707070;
      }

      .cls-2, .cls-3, .cls-5 {
        fill-rule: evenodd;
      }

      .cls-3 {
        fill: #ddd;
      }

      .cls-4, .cls-5 {
        fill: #fff;
      }
    </style>
  </defs>
  <g id="Group_45" data-name="Group 45" transform="translate(0)">
    <path id="Path_43" data-name="Path 43" class="cls-1" d="M65.351,38.669a2.2,2.2,0,0,1-2.189,2.189H2.189A2.2,2.2,0,0,1,0,38.669V2.189A2.2,2.2,0,0,1,2.189,0H63.214A2.2,2.2,0,0,1,65.4,2.189v36.48Z"/>
    <path id="Path_44" data-name="Path 44" class="cls-2" d="M98.7,52.9v-.1h.1v.1Z" transform="translate(-47.264 -25.284)"/>
    <g id="Group_22" data-name="Group 22" transform="translate(13.117 8.678)">
      <path id="Path_45" data-name="Path 45" class="cls-2" d="M67.021,40.128a11.794,11.794,0,0,0,11-7.713,11.768,11.768,0,0,0-3.544-13.081,11.707,11.707,0,0,0-13.55-.99A11.906,11.906,0,0,0,56.337,23.5,12.181,12.181,0,0,0,55.5,30.7a11.647,11.647,0,0,0,9.641,9.224A7.96,7.96,0,0,0,67.021,40.128Z" transform="translate(-39.593 -16.652)"/>
      <path id="Path_46" data-name="Path 46" class="cls-3" d="M36.911,40.128a11.794,11.794,0,0,0,11-7.713,11.851,11.851,0,0,0,.261-7.244,11.575,11.575,0,0,0-3.8-5.837A11.721,11.721,0,0,0,26.228,23.5a11.785,11.785,0,0,0-.834,7.192,11.474,11.474,0,0,0,3.387,6.1,11.673,11.673,0,0,0,6.358,3.127A6.6,6.6,0,0,0,36.911,40.128Z" transform="translate(-25.169 -16.652)"/>
      <path id="Path_47" data-name="Path 47" class="cls-2" d="M60.1,24.725h6.2V24.1h-5.68Z" transform="translate(-41.896 -20.218)"/>
      <path id="Path_48" data-name="Path 48" class="cls-2" d="M58.3,27.425h7.14V26.8H58.665Z" transform="translate(-41.034 -21.511)"/>
      <path id="Path_49" data-name="Path 49" class="cls-2" d="M57,30.125h7.817V29.5H57.261Z" transform="translate(-40.412 -22.804)"/>
      <path id="Path_50" data-name="Path 50" class="cls-2" d="M56,32.877h8.338V32.2h-8.13Z" transform="translate(-39.933 -24.097)"/>
      <path id="Path_51" data-name="Path 51" class="cls-2" d="M56.408,46.025h8.078V45.4H56.2Z" transform="translate(-40.029 -30.418)"/>
      <path id="Path_52" data-name="Path 52" class="cls-2" d="M57.413,48.725h7.5V48.1H57.1Z" transform="translate(-40.46 -31.711)"/>
      <path id="Path_53" data-name="Path 53" class="cls-2" d="M58.965,51.425h6.671V50.8H58.6Z" transform="translate(-41.178 -33.004)"/>
      <path id="Path_54" data-name="Path 54" class="cls-2" d="M61.021,54.125h5.524V53.5H60.5Z" transform="translate(-42.088 -34.297)"/>
      <path id="Path_55" data-name="Path 55" class="cls-2" d="M55.5,35.625h8.6V35H55.6Z" transform="translate(-39.694 -25.438)"/>
      <path id="Path_56" data-name="Path 56" class="cls-2" d="M65.6,43.325h3.283V42.7H65.7Z" transform="translate(-44.53 -29.125)"/>
      <path id="Path_57" data-name="Path 57" class="cls-2" d="M66.1,40.577h3.023V39.9H66.2Z" transform="translate(-44.769 -27.784)"/>
      <path id="Path_58" data-name="Path 58" class="cls-2" d="M55.1,39.9h.834v.677h-.782Z" transform="translate(-39.502 -27.784)"/>
      <path id="Path_59" data-name="Path 59" class="cls-4" d="M47.845,37.551c.365,0,.677.052,1.042.052v-.052h.052l.208-.938c-.156,0-.261-.052-.417-.052h0c-1.251-.156-3.075.052-2.71,1.772,0,.052.052.1.052.208.052.052.052.1.1.156.365.365.834.417,1.251.677l.052.052.052.1v.1a.287.287,0,0,1-.156.261h-.052a2.879,2.879,0,0,1-1.616-.156l-.208.99.1.052h0a3.827,3.827,0,0,0,2.293.052,1.482,1.482,0,0,0,.886-1.98l-.1-.156c-.313-.365-.782-.365-1.147-.625l-.156-.156V37.76l.052-.052.052-.052c.1-.052.156-.1.261-.1h.1Z" transform="translate(-34.905 -26.165)"/>
      <path id="Path_60" data-name="Path 60" class="cls-4" d="M53.823,36.728H54.5l.156-.99h-.677l.156-.938H52.989v.052h-.052c-.208,1.042-.365,2.085-.573,3.127-.1.469-.417,1.3-.156,1.772.261.417,1.042.365,1.511.313h0a.592.592,0,0,0,.417-.156l.156-.886a1.023,1.023,0,0,1-.782.052l-.052-.052-.052-.052v-.052A16.181,16.181,0,0,1,53.823,36.728Z" transform="translate(-38.068 -25.342)"/>
      <path id="Path_61" data-name="Path 61" class="cls-4" d="M73.167,34.764a3.042,3.042,0,0,0-3.7.886c-.834,1.3-.938,3.648.834,4.221a2.265,2.265,0,0,0,2.085-.208l.156-1.094-.1-.052a1.526,1.526,0,0,1-1.355.261h0c-1.251-.208-1.042-1.928-.365-2.658a1.793,1.793,0,0,1,2.189-.156l.052-.052h.052l.156-1.147Z" transform="translate(-46.104 -25.202)"/>
      <path id="Path_62" data-name="Path 62" class="cls-4" d="M91.739,34.8l-.261,1.459c-.73-.99-2.137-.417-2.71.417-.677,1.042-.782,3.179.782,3.44a1.486,1.486,0,0,0,1.3-.417l-.052.417h1.147v-.052H92l.886-5.264H91.739Zm-.469,2.918c-.052.625-.365,1.3-1.042,1.355l-.156-.052-.1-.1-.1-.1c-.365-.625.052-2.554,1.094-2.032A1.216,1.216,0,0,1,91.27,37.718Z" transform="translate(-55.4 -25.342)"/>
      <path id="Path_63" data-name="Path 63" class="cls-4" d="M42.366,37.492c-.156-1.3-2.293-1.251-3.231-.834l-.313,1.094a2.372,2.372,0,0,1,1.042-.261h0c.313-.052.886-.1,1.094.156a.191.191,0,0,1,.052.156v.052a.313.313,0,0,1-.052.208h-.99a.661.661,0,0,0-.313.052A1.661,1.661,0,0,0,38.2,39.577a1.2,1.2,0,0,0,1.3,1.355,1.967,1.967,0,0,0,1.2-.417c0,.1-.052.261-.052.365H41.74c.1-.625.261-1.3.365-1.928A4.786,4.786,0,0,0,42.366,37.492ZM40.907,39c-.1.573-.521,1.147-1.251.886v-.052l-.052-.052-.052-.1v-.313l.052-.1a1.519,1.519,0,0,1,1.3-.469h0Z" transform="translate(-31.406 -26.106)"/>
      <path id="Path_64" data-name="Path 64" class="cls-4" d="M31.373,34.8l-1.2,2.866L30.018,34.8h-1.98L27.1,40.116h1.2l.052-.156.573-3.544.208,3.7h1.3l1.511-3.648-.625,3.648h1.2l.938-5.316Z" transform="translate(-26.094 -25.342)"/>
      <path id="Path_65" data-name="Path 65" class="cls-5" d="M80.065,37.928v-.313a1.454,1.454,0,0,0-1.355-1.042h0a4.042,4.042,0,0,0-1.772.156h0a5.5,5.5,0,0,0-.261.99h.052a3.6,3.6,0,0,1,1.668-.208h.1c.052,0,.1.052.156.052a.52.52,0,0,1,.208.261v.1h-.052c0,.1,0,.156-.052.208h-.521v.052h0v-.052a4.023,4.023,0,0,0-.782.1h0a1.614,1.614,0,0,0-1.407,1.511H76a1.135,1.135,0,0,0,.938,1.2h0a1.636,1.636,0,0,0,1.511-.469v.365h0V40.9h1.042v-.052h0V40.9h0c.052-.313.573-2.97.573-2.97ZM76.73,37.72Zm1.928,1.355c-.1.573-.521,1.147-1.251.886l-.052-.052-.052-.052-.052-.1v-.1c-.052-.365.313-.625.625-.73a1.311,1.311,0,0,1,.782-.052h0Zm.156-.886Z" transform="translate(-49.51 -26.178)"/>
      <path id="Path_66" data-name="Path 66" class="cls-5" d="M97.847,43.321v-.1l-.052-.1c-.052-.052-.052-.1-.1-.156l-.1-.052c-.052-.052-.1-.052-.208-.1h-.208a.4.4,0,0,0-.208.1l-.1.052c-.052.052-.1.1-.1.156l-.052.1v.1a.313.313,0,0,0,.052.208c.052.052.052.1.1.156s.1.1.156.1.156.052.208.052a.313.313,0,0,0,.208-.052.47.47,0,0,0,.313-.313c.1,0,.1-.052.1-.156Zm-.1.1v.1c-.052.052-.1.156-.156.208l-.052.052h-.313l-.1-.052-.052-.052a.719.719,0,0,1-.156-.208c-.052-.052-.052-.208-.052-.313,0-.052.052-.1.1-.156l.052-.052a.191.191,0,0,1,.156-.052h.156c.052,0,.1.052.156.052l.052.052c.052.052.052.1.1.156v.208Z" transform="translate(-59.423 -29.173)"/>
      <path id="Path_67" data-name="Path 67" class="cls-5" d="M97.817,43.5h0l-.052-.052-.052-.052H97.4v.469h.1v-.208h.1l.1.208h.1l-.1-.208h.052l.052-.156Zm-.208.1h-.1v-.156h.208v.156h-.1Z" transform="translate(-59.758 -29.46)"/>
      <path id="Path_68" data-name="Path 68" class="cls-4" d="M86.423,36.5a1.512,1.512,0,0,0-1.146.625l.1-.573H84.13l-.73,4.273h.052v.1H84.6l.417-2.293h0a1.123,1.123,0,0,1,1.251-.99l.208-1.147Z" transform="translate(-53.054 -26.156)"/>
      <path id="Path_69" data-name="Path 69" class="cls-4" d="M66.579,36.579a1.309,1.309,0,0,0-1.3.573l.1-.521H64.13L63.4,40.9h.052v.052h1.2c.1-.782.261-1.511.365-2.293a.986.986,0,0,1,1.042-.886h.156a7.241,7.241,0,0,1,.313-.99.719.719,0,0,1,.156-.208Z" transform="translate(-43.476 -26.183)"/>
      <path id="Path_70" data-name="Path 70" class="cls-2" d="M97.813,52.752h0l-.052.1h-.208V52.8h0v-.1h.208l.052.052h.1V52.7H97.5v.156h0v.208h.1v-.208h.1l.1.208h.1l-.156-.156h.052v-.156Z" transform="translate(-59.806 -33.914)"/>
      <path id="Path_71" data-name="Path 71" class="cls-5" d="M60.165,37.808c-.156-1.459-1.98-1.772-3.023-.99a2.455,2.455,0,0,0-.313,3.544,2.8,2.8,0,0,0,2.137.469h0a1.443,1.443,0,0,0,.677-.156h0l.1-.052.156-1.094a2.342,2.342,0,0,1-1.668.365c-.365-.052-.834-.365-.782-.834h2.554A10.252,10.252,0,0,0,60.165,37.808Zm-2.5.313c.1-.573.886-1.094,1.251-.417a.554.554,0,0,1,.052.417Z" transform="translate(-40.033 -26.109)"/>
      <path id="Path_72" data-name="Path 72" class="cls-6" d="M97.369,53.038a.469.469,0,1,1,.469-.469A.437.437,0,0,1,97.369,53.038Zm0-.938a.411.411,0,0,0-.417.417.417.417,0,0,0,.834,0A.411.411,0,0,0,97.369,52.1Z" transform="translate(-59.518 -33.626)"/>
    </g>
  </g>
</svg>
