<svg xmlns="http://www.w3.org/2000/svg" viewBox="0 0 65.403 40.857">
  <defs>
    <style>
      .cls-1 {
        fill: #ededed;
      }

      .cls-2 {
        fill: #707070;
      }
    </style>
  </defs>
  <g id="Group_42" data-name="Group 42" transform="translate(0)">
    <g id="Group_15" data-name="Group 15">
      <path id="Path_19" data-name="Path 19" class="cls-1" d="M65.351,38.669a2.2,2.2,0,0,1-2.189,2.189H2.189A2.2,2.2,0,0,1,0,38.669V2.189A2.2,2.2,0,0,1,2.189,0H63.214A2.2,2.2,0,0,1,65.4,2.189v36.48Z"/>
      <path id="Path_20" data-name="Path 20" class="cls-2" d="M55.934,34.4a1.064,1.064,0,0,0-.677.417s-1.563,2.658-1.72,2.918c-.1.156-.156.052-.156,0s-.469-2.918-.469-2.918a.629.629,0,0,0-.573-.417h-.99a.312.312,0,0,0-.313.417s.73,4.221.886,5.211c.052.573,0,.625,0,.625l-.99,1.72c-.156.208-.052.417.156.417h1.147a1.065,1.065,0,0,0,.677-.417l4.325-7.348s.417-.625.052-.625H55.934" transform="translate(-24.353 -16.473)"/>
      <path id="Path_21" data-name="Path 21" class="cls-2" d="M29.985,34.283a2.1,2.1,0,0,1-1.355.365H28.37a.311.311,0,0,1-.313-.417l.313-1.407a.561.561,0,0,1,.521-.417h.365a1.567,1.567,0,0,1,.938.208.743.743,0,0,1,.313.625,1.446,1.446,0,0,1-.521,1.042m2.345-2.189a1.657,1.657,0,0,0-.573-.625,3.913,3.913,0,0,0-.938-.365,8.785,8.785,0,0,0-1.3-.1H27.223a.561.561,0,0,0-.521.417l-1.511,6.671a.334.334,0,0,0,.313.417H26.6a.561.561,0,0,0,.521-.417l.365-1.616A.561.561,0,0,1,28,36.055h.313a5.065,5.065,0,0,0,3.127-.834,2.508,2.508,0,0,0,1.094-2.137,1.984,1.984,0,0,0-.208-.99" transform="translate(-12.058 -14.845)"/>
      <path id="Path_22" data-name="Path 22" class="cls-2" d="M43.78,34.665a4.339,4.339,0,0,0-1.928-.365,10.972,10.972,0,0,0-1.3.1c-.313.052-.365.052-.573.1a.642.642,0,0,0-.469.521l-.156.521c-.052.365.1.313.208.313.156-.052.261-.1.625-.208a3.892,3.892,0,0,1,1.042-.156,2.449,2.449,0,0,1,.99.156.5.5,0,0,1,.313.469v.156c0,.052-.052.1-.156.1-.625.052-1.042.1-1.616.156a5.559,5.559,0,0,0-1.407.365,2.27,2.27,0,0,0-.938.73,1.982,1.982,0,0,0-.313,1.147,1.312,1.312,0,0,0,.469,1.042,1.717,1.717,0,0,0,1.147.417,2.352,2.352,0,0,0,.677-.052c.156-.052.365-.1.521-.156a2.112,2.112,0,0,0,.469-.261c.156-.1.261-.156.417-.261h0l-.052.156h0c-.052.208.1.365.313.417h.99a.636.636,0,0,0,.469-.417l.782-3.44c0-.1.052-.156.052-.261v-.261a1.142,1.142,0,0,0-.573-1.042M41.852,38.73a1.56,1.56,0,0,1-.417.208,1.222,1.222,0,0,1-.573.1,1.944,1.944,0,0,1-.625-.1c-.156-.052-.208-.208-.208-.417A.778.778,0,0,1,40.185,38a.759.759,0,0,1,.469-.313c.208-.052.417-.1.73-.156.261-.052.73-.1.782-.1s.1-.052.052.156c0,.052-.156.677-.208.938,0,.052-.1.156-.156.208" transform="translate(-18.245 -16.425)"/>
      <path id="Path_23" data-name="Path 23" class="cls-2" d="M81.68,34.665a4.339,4.339,0,0,0-1.928-.365,10.972,10.972,0,0,0-1.3.1c-.313.052-.365.052-.573.1a.642.642,0,0,0-.469.521l-.156.521c-.052.365.1.313.208.313.156-.052.261-.1.625-.208a3.892,3.892,0,0,1,1.042-.156,2.449,2.449,0,0,1,.99.156.5.5,0,0,1,.313.469v.156c0,.052-.052.1-.156.1-.625.052-1.094.1-1.616.156a5.559,5.559,0,0,0-1.407.365,2.27,2.27,0,0,0-.938.73,2.421,2.421,0,0,0-.313,1.2,1.312,1.312,0,0,0,.469,1.042,1.717,1.717,0,0,0,1.147.417,2.352,2.352,0,0,0,.677-.052c.156-.052.313-.1.521-.156a2.113,2.113,0,0,0,.469-.261c.156-.1.261-.156.417-.261h0l-.052.1h0c-.052.208.1.365.313.417h.99a.554.554,0,0,0,.469-.417l.782-3.44c0-.1.052-.156.052-.261v-.261a.98.98,0,0,0-.573-1.042M79.752,38.73a1.56,1.56,0,0,1-.417.208,1.222,1.222,0,0,1-.573.1,1.944,1.944,0,0,1-.625-.1c-.156-.052-.208-.208-.208-.417A.778.778,0,0,1,78.085,38a1.06,1.06,0,0,1,.469-.313c.208-.052.417-.1.73-.156.261-.052.73-.1.782-.1s.1-.052.052.156c0,.052-.156.677-.208.938,0,.052-.1.156-.156.208" transform="translate(-36.393 -16.425)"/>
      <path id="Path_24" data-name="Path 24" class="cls-2" d="M67.837,34.383a2.1,2.1,0,0,1-1.355.365h-.261a.334.334,0,0,1-.313-.417l.313-1.407a.619.619,0,0,1,.521-.417h.365a1.567,1.567,0,0,1,.938.208.743.743,0,0,1,.313.625,1.551,1.551,0,0,1-.521,1.042m2.345-2.189a1.8,1.8,0,0,0-.625-.625,3.913,3.913,0,0,0-.938-.365,8.785,8.785,0,0,0-1.3-.1H65.023a.561.561,0,0,0-.521.417l-1.511,6.671a.334.334,0,0,0,.313.417H64.4a.619.619,0,0,0,.521-.417l.365-1.616a.619.619,0,0,1,.521-.417h.313a5.065,5.065,0,0,0,3.127-.834,2.574,2.574,0,0,0,1.094-2.137,1.486,1.486,0,0,0-.156-.99" transform="translate(-30.159 -14.893)"/>
      <path id="Path_25" data-name="Path 25" class="cls-2" d="M91.361,31.2h-.99a.627.627,0,0,0-.521.365v.052a.912.912,0,0,1-.052.261l-1.355,6.1a.912.912,0,0,0-.052.261h0c-.052.208.1.365.313.417h.99a.628.628,0,0,0,.521-.365v-.052l1.459-6.618h0a.316.316,0,0,0-.313-.417" transform="translate(-42.322 -14.94)"/>
      <path id="Path_26" data-name="Path 26" class="cls-2" d="M96.277,32.507h-.208a.356.356,0,0,1-.365-.365v-.573h-.1v-.156h.1V31.1h.156v.313h.365v.156h-.365v.625l.052.1.052.052h.261v.156Z" transform="translate(-45.779 -14.893)"/>
      <path id="Path_27" data-name="Path 27" class="cls-2" d="M98.959,32.747H98.8v-.782l-.052-.1-.052-.052h-.1a.192.192,0,0,0-.156.052c-.052,0-.1.052-.156.1v.782h-.156v-.886l-.052-.052h-.1a.191.191,0,0,0-.156.052c-.052,0-.1.052-.156.1v.782H97.5V31.7h.156v.1c.052-.052.1-.1.156-.1a.191.191,0,0,1,.156-.052.313.313,0,0,1,.208.052c.052.052.1.052.1.1.052-.052.156-.1.208-.156s.1-.052.208-.052a.4.4,0,0,1,.261.1.441.441,0,0,1,.1.313v.73Z" transform="translate(-46.689 -15.132)"/>
    </g>
  </g>
</svg>
