<svg xmlns="http://www.w3.org/2000/svg" viewBox="0 0 65.403 40.857">
  <defs>
    <style>
      .cls-1 {
        fill: #ededed;
      }

      .cls-2 {
        fill: #707070;
      }

      .cls-3 {
        fill: #ddd;
      }
    </style>
  </defs>
  <g id="Group_44" data-name="Group 44" transform="translate(0)">
    <g id="Group_19" data-name="Group 19">
      <path id="Path_37" data-name="Path 37" class="cls-1" d="M65.351,38.669a2.2,2.2,0,0,1-2.189,2.189H2.189A2.2,2.2,0,0,1,0,38.669V2.189A2.2,2.2,0,0,1,2.189,0H63.214A2.2,2.2,0,0,1,65.4,2.189v36.48Z"/>
      <path id="Path_38" data-name="Path 38" class="cls-2" d="M54.779,39.7H51.6l1.98-12.3h3.231Z" transform="translate(-24.709 -13.121)"/>
      <path id="Path_39" data-name="Path 39" class="cls-2" d="M36.2,27.4l-3.023,8.442-.365-1.824h0l-1.094-5.524s-.1-1.094-1.511-1.094H25.152l-.052.208a11.269,11.269,0,0,1,3.335,1.407L31.249,39.7h3.335L39.64,27.4Z" transform="translate(-12.019 -13.121)"/>
      <path id="Path_40" data-name="Path 40" class="cls-2" d="M86.89,39.747h2.918L87.255,27.5H84.7a1.426,1.426,0,0,0-1.459.938L78.5,39.747h3.335l.677-1.824h4.065ZM83.4,35.369l1.668-4.586L86,35.369Z" transform="translate(-37.591 -13.169)"/>
      <path id="Path_41" data-name="Path 41" class="cls-2" d="M70.568,30.179l.469-2.658A9.422,9.422,0,0,0,68.171,27c-1.563,0-5.368.677-5.368,4.065,0,3.179,4.43,3.231,4.43,4.847,0,1.668-3.961,1.355-5.264.313L61.5,38.986a8.985,8.985,0,0,0,3.6.677c2.189,0,5.472-1.147,5.472-4.221,0-3.179-4.482-3.492-4.482-4.847.052-1.355,3.127-1.147,4.482-.417" transform="translate(-29.45 -12.929)"/>
      <path id="Path_42" data-name="Path 42" class="cls-3" d="M32.813,34.018l-1.094-5.524s-.1-1.094-1.511-1.094H25.152l-.052.208a12.805,12.805,0,0,1,4.742,2.4,9.413,9.413,0,0,1,2.97,4.013" transform="translate(-12.019 -13.121)"/>
    </g>
  </g>
</svg>
