<svg version="1.2" baseProfile="tiny" xmlns="http://www.w3.org/2000/svg" viewBox="0 0 300 22">
  <path d="M12.3 21v-2c-2.9 0-5.2-.8-6.8-2.3-1.7-1.6-2.5-3.6-2.5-6s.8-4.3 2.5-5.8 3.9-2.2 6.8-2.2V1h5.1v1.6c2.9 0 5.2.7 6.8 2.2 1.7 1.5 2.5 3.4 2.5 5.8s-.8 4.4-2.5 5.9-3.9 2.3-6.8 2.3v2h-5.1zm0-6.6V7.2c-1.2 0-2.2.3-3 1-.8.6-1.1 1.5-1.1 2.6 0 1.2.4 2.1 1.1 2.7.8.6 1.8.9 3 .9zm5.1 0c1.2 0 2.2-.3 3-1 .7-.6 1.1-1.5 1.1-2.7 0-1.1-.4-2-1.1-2.6-.8-.6-1.7-1-3-1v7.3zm10.2 5.8l6.5-15.4h4.1l6.5 15.4h-4.6L39 17.5h-5.9L32 20.2h-4.4zm6.8-6h3.4l-1.7-4.4-1.7 4.4zm11.8 6V4.9h12.3v3.6h-8.1v1.8h3c1.9 0 3.3.4 4.5 1.3 1.1.8 1.7 2.1 1.7 3.7s-.5 2.8-1.6 3.7c-1.1.9-2.5 1.3-4.3 1.3h-7.5zm4.2-3.6h2.8c.6 0 1.1-.1 1.5-.4.4-.3.5-.7.5-1.2s-.2-.9-.5-1.1c-.4-.3-.8-.4-1.5-.4h-2.9v3.1zm11.1 3.6V4.9h6.6c2 0 3.5.5 4.7 1.4 1.1 1 1.7 2.3 1.7 4 0 1.8-.6 3.1-1.8 4.1-1.2 1-2.8 1.4-4.8 1.4h-2.1v4.4h-4.3zm4.3-7.7h2c.8 0 1.4-.2 1.8-.5.4-.4.6-.9.6-1.5 0-.7-.2-1.2-.6-1.5-.4-.3-1-.5-1.8-.5h-2v4zm10.5 7.7V4.9h4.2v8.6l5.9-8.6h4v15.3h-4.2v-8.6l-5.9 8.6h-4zm16.8 0V4.9h4.2v6.2l5.3-6.2h5l-5.8 6.6 6 8.7h-5.1l-3.9-5.7-1.6 1.7v4h-4.1zm14.7 0l6.5-15.4h4.1l6.5 15.4h-4.6l-1.1-2.7h-5.9l-1.1 2.7h-4.4zm6.8-6h3.4l-1.7-4.4-1.7 4.4zm28.2 6.4c-2.7 0-4.9-.9-6.7-2.7-1.8-1.8-2.7-4.1-2.7-6.8s.9-5 2.8-6.8 4.2-2.8 6.9-2.8c3.3 0 5.8 1.3 7.7 3.9L147 8.2c-1.1-1.4-2.5-2.1-4-2.1-1.3 0-2.3.5-3.2 1.4-.8.9-1.2 2.1-1.2 3.5s.4 2.6 1.2 3.5c.8.9 1.9 1.4 3.2 1.4.9 0 1.7-.2 2.3-.6s1.3-.9 1.9-1.7l3.8 2.7c-1 1.3-2.1 2.3-3.4 3.1-1.3.8-2.9 1.2-4.8 1.2zm10.1-.4V4.9h4.2v6.2l5.3-6.2h5l-5.8 6.6 6 8.7h-5.1l-3.9-5.7-1.6 1.7v4h-4.1zm16 0V4.9h4.2v8.6l5.9-8.6h4v15.3h-4.2v-8.6l-5.9 8.6h-4zm16.8 0V4.9h4.2v5.7h5.4V4.9h4.2v15.3h-4.2v-5.8h-5.4v5.8h-4.2zm15.4 0l6.5-15.4h4.1l6.5 15.4h-4.6l-1.1-2.7h-5.9l-1.1 2.7h-4.4zm6.8-6h3.4l-1.7-4.4-1.7 4.4zm12.7 6.2c-1 0-1.8-.1-2.5-.4l.3-3.3c.3.1.6.1 1 .1.3 0 .5 0 .7-.1.2-.1.4-.3.6-.7.2-.4.4-.9.5-1.6.1-.7.2-1.6.3-2.9.1-1.3.1-2.8.1-4.6v-2h11.8v15.3h-4.2V8.6h-3.6v.6c0 1.8-.1 3.4-.2 4.7-.2 1.3-.4 2.4-.7 3.3-.3.8-.6 1.5-1.1 2-.4.5-.9.8-1.4 1-.4.1-1 .2-1.6.2zm15.5-.2V4.9h4.2v8.6l5.9-8.6h4v15.3H246v-8.6l-5.9 8.6h-4zm24.4 0V1.8h4.8L271 11V1.8h5.3v18.4h-4.5l-6-9.6v9.6h-5.3zm24.9-8.5c-.8.9-1.8 1.3-3 1.3s-2.3-.4-3-1.3c-.8-.8-1.2-1.9-1.2-3.1 0-1.3.4-2.3 1.2-3.2.8-.9 1.8-1.3 3.1-1.3 1.2 0 2.3.4 3 1.3.8.8 1.2 1.9 1.2 3.1-.1 1.3-.5 2.4-1.3 3.2zm-6.9 5.6v-3.1h7.9v3.1h-7.9zm3-7.4c.3.4.6.5 1 .5s.7-.2.9-.5c.2-.3.4-.8.4-1.3s-.1-.9-.4-1.3c-.3-.4-.6-.5-1-.5s-.7.2-.9.5c-.2.4-.4.8-.4 1.3s.1 1 .4 1.3zM292 20.2V6.4l-3.1.7-1-3.9 5.4-1.5h3.7v18.5h-5z"/>
</svg>
