<?xml version="1.0" encoding="utf-8"?>
<!-- Generator: Adobe Illustrator 23.0.3, SVG Export Plug-In . SVG Version: 6.00 Build 0)  -->
<svg version="1.2" baseProfile="tiny" id="LogoSkinaly"
	 xmlns="http://www.w3.org/2000/svg" xmlns:xlink="http://www.w3.org/1999/xlink" x="0px" y="0px" viewBox="0 0 388 26"
	 xml:space="preserve">
<path d="M18.1,25h-6.2v-2.4c-3.8-0.3-6.7-1.3-8.7-2.9c-2-1.6-3.1-3.8-3.1-6.6c0-2.8,1-5,3.1-6.6c2.1-1.6,4.9-2.6,8.7-3V1h6.2v2.5
	c3.7,0.3,6.6,1.3,8.7,3c2.1,1.6,3.1,3.8,3.1,6.6c0,2.8-1,5-3.1,6.6c-2,1.6-4.9,2.6-8.7,2.9V25z M6.4,13c0,2.2,1.8,3.6,5.5,4V9
	C8.2,9.5,6.4,10.8,6.4,13z M23.6,13c0-2.2-1.8-3.6-5.5-4v8.1C21.8,16.6,23.6,15.2,23.6,13z M51.1,25h-5.5l-0.9-2.7h-7.4L36.4,25H31
	l7-18.7h6L51.1,25z M43.4,18.1l-2.4-7l-2.4,7H43.4z M53.8,6.3h14.6v4.2h-9.8V13h4.7c2,0,3.5,0.6,4.6,1.7c1.1,1.1,1.7,2.6,1.7,4.3
	s-0.6,3.2-1.7,4.3c-1.1,1.2-2.7,1.7-4.6,1.7h-9.5V6.3z M62.7,17.2h-4.1v3.7h4.1c0.6,0,1.1-0.2,1.5-0.5s0.6-0.8,0.6-1.4
	c0-0.6-0.2-1-0.6-1.3S63.3,17.2,62.7,17.2z M77.8,25H73V6.3h9.4c2,0,3.6,0.6,4.8,1.8c1.2,1.2,1.7,2.7,1.7,4.4c0,1.8-0.6,3.2-1.7,4.4
	c-1.2,1.2-2.7,1.8-4.8,1.8h-4.5V25z M81.7,14.6c0.7,0,1.2-0.2,1.6-0.5s0.6-0.8,0.6-1.5c0-0.6-0.2-1.1-0.6-1.5s-1-0.5-1.6-0.5h-3.9v4
	H81.7z M96.6,25H92V6.3h4.8v11l7.6-11h5V25h-4.8V13.5L96.6,25z M130.6,25h-5.9l-4.9-7l-1.3,1.6V25h-4.8V6.3h4.8V14l5.7-7.7h5.9
	l-7.3,8.7L130.6,25z M152.6,25h-5.5l-0.9-2.7h-7.4l-0.9,2.7h-5.5l7-18.7h6L152.6,25z M144.9,18.1l-2.4-7l-2.4,7H144.9z M178.6,25.5
	c-3.7,0-6.8-1.2-9.3-3.5c-2.5-2.3-3.7-5.3-3.7-8.9c0-3.7,1.2-6.7,3.7-9c2.5-2.3,5.6-3.5,9.3-3.5c4.8,0,8.3,2.1,10.5,6.4l-5.3,2.5
	c-0.4-1-1.1-1.8-2-2.5c-0.9-0.7-2-1-3.1-1c-1.9,0-3.5,0.7-4.8,2c-1.3,1.3-1.9,3-1.9,5s0.6,3.6,1.9,4.9c1.3,1.3,2.9,2,4.8,2
	c1.1,0,2.2-0.3,3.1-1s1.6-1.5,2-2.5l5.3,2.5c-0.9,1.8-2.2,3.4-3.9,4.6C183.4,24.8,181.2,25.5,178.6,25.5z M209.6,25h-5.9l-4.9-7
	l-1.3,1.6V25h-4.8V6.3h4.8V14l5.7-7.7h5.9l-7.3,8.7L209.6,25z M217,25h-4.6V6.3h4.8v11l7.6-11h5V25h-4.8V13.5L217,25z M251.5,25
	h-4.8v-7.5H239V25h-4.8V6.3h4.8v7h7.8v-7h4.8V25z M274.4,25h-5.5l-0.9-2.7h-7.4l-0.9,2.7h-5.5l7-18.7h6L274.4,25z M266.7,18.1
	l-2.4-7l-2.4,7H266.7z M276.6,25.4v-4.3c0.9,0,1.7-0.4,2.2-1.1c0.5-0.8,0.9-2.1,1.2-4.2l1.1-9.5H295V25h-4.8V10.5h-4.8l-0.7,5.6
	c-0.2,1.8-0.6,3.4-1.1,4.6c-0.5,1.2-1.1,2.2-1.8,2.8c-0.7,0.6-1.5,1.1-2.4,1.4C278.7,25.2,277.7,25.4,276.6,25.4z M304.1,25h-4.6
	V6.3h4.8v11l7.6-11h5V25H312V13.5L304.1,25z M355.4,25h-6l-10.2-13.9V25h-6.2V1h6.4l9.7,13.2V1h6.2V25z M364.9,12.4
	c-1.9,0-3.5-0.6-4.6-1.7c-1.2-1.2-1.7-2.6-1.7-4.2c0-1.7,0.6-3.1,1.7-4.2s2.7-1.7,4.6-1.7c1.9,0,3.5,0.6,4.7,1.7
	c1.2,1.2,1.7,2.6,1.7,4.2c0,1.7-0.6,3.1-1.7,4.2C368.4,11.8,366.8,12.4,364.9,12.4z M364.9,9.3c0.7,0,1.3-0.2,1.7-0.7
	c0.4-0.5,0.6-1.2,0.6-2.1c0-0.9-0.2-1.6-0.6-2c-0.4-0.5-1-0.7-1.7-0.7c-1.5,0-2.3,0.9-2.3,2.7c0,0.9,0.2,1.6,0.6,2.1
	C363.6,9,364.1,9.3,364.9,9.3z M387.9,25h-6.2V8.9l-4,4.1l-3.5-3.7l8.4-8.3h5.4V25z"/>
</svg>
