<svg aria-hidden="true" style="position: absolute; width: 0; height: 0; overflow: hidden;" version="1.1" xmlns="http://www.w3.org/2000/svg" xmlns:xlink="http://www.w3.org/1999/xlink">
<defs>
<symbol id="icon-logoSkinally" viewBox="0 0 436 32">
<title>logoSkinally</title>
<path d="M17.891 30.545v-2.909c-4.218 0-7.564-1.164-9.891-3.345-2.473-2.327-3.636-5.236-3.636-8.727s1.164-6.255 3.636-8.436 5.673-3.2 9.891-3.2v-2.473h7.418v2.327c4.218 0 7.564 1.018 9.891 3.2 2.473 2.182 3.636 4.945 3.636 8.436s-1.164 6.4-3.636 8.582-5.673 3.345-9.891 3.345v2.909h-7.418zM17.891 20.945v-10.473c-1.745 0-3.2 0.436-4.364 1.455-1.164 0.873-1.6 2.182-1.6 3.782 0 1.745 0.582 3.055 1.6 3.927 1.164 0.873 2.618 1.309 4.364 1.309zM25.309 20.945c1.745 0 3.2-0.436 4.364-1.455 1.018-0.873 1.6-2.182 1.6-3.927 0-1.6-0.582-2.909-1.6-3.782-1.164-0.873-2.473-1.455-4.364-1.455v10.618zM40.145 29.382l9.455-22.4h5.964l9.455 22.4h-6.691l-1.6-3.927h-8.582l-1.6 3.927h-6.4zM50.036 20.655h4.945l-2.473-6.4-2.473 6.4zM67.2 29.382v-22.255h17.891v5.236h-11.782v2.618h4.364c2.764 0 4.8 0.582 6.545 1.891 1.6 1.164 2.473 3.055 2.473 5.382s-0.727 4.073-2.327 5.382c-1.6 1.309-3.636 1.891-6.255 1.891h-10.909zM73.309 24.145h4.073c0.873 0 1.6-0.145 2.182-0.582s0.727-1.018 0.727-1.745-0.291-1.309-0.727-1.6c-0.582-0.436-1.164-0.582-2.182-0.582h-4.218v4.509zM89.455 29.382v-22.255h9.6c2.909 0 5.091 0.727 6.836 2.036 1.6 1.455 2.473 3.345 2.473 5.818 0 2.618-0.873 4.509-2.618 5.964s-4.073 2.036-6.982 2.036h-3.055v6.4h-6.255zM95.709 18.182h2.909c1.164 0 2.036-0.291 2.618-0.727 0.582-0.582 0.873-1.309 0.873-2.182 0-1.018-0.291-1.745-0.873-2.182s-1.455-0.727-2.618-0.727h-2.909v5.818zM110.982 29.382v-22.255h6.109v12.509l8.582-12.509h5.818v22.255h-6.109v-12.509l-8.582 12.509h-5.818zM135.418 29.382v-22.255h6.109v9.018l7.709-9.018h7.273l-8.436 9.6 8.727 12.655h-7.418l-5.673-8.291-2.327 2.473v5.818h-5.964zM156.8 29.382l9.455-22.4h5.964l9.455 22.4h-6.691l-1.6-3.927h-8.582l-1.6 3.927h-6.4zM166.691 20.655h4.945l-2.473-6.4-2.473 6.4zM207.709 29.964c-3.927 0-7.127-1.309-9.745-3.927s-3.927-5.964-3.927-9.891 1.309-7.273 4.073-9.891 6.109-4.073 10.036-4.073c4.8 0 8.436 1.891 11.2 5.673l-5.527 4.073c-1.6-2.036-3.636-3.055-5.818-3.055-1.891 0-3.345 0.727-4.655 2.036-1.164 1.309-1.745 3.055-1.745 5.091s0.582 3.782 1.745 5.091c1.164 1.309 2.764 2.036 4.655 2.036 1.309 0 2.473-0.291 3.345-0.873s1.891-1.309 2.764-2.473l5.527 3.927c-1.455 1.891-3.055 3.345-4.945 4.509s-4.218 1.745-6.982 1.745zM222.4 29.382v-22.255h6.109v9.018l7.709-9.018h7.273l-8.436 9.6 8.727 12.655h-7.418l-5.673-8.291-2.327 2.473v5.818h-5.964zM245.673 29.382v-22.255h6.109v12.509l8.582-12.509h5.818v22.255h-6.109v-12.509l-8.582 12.509h-5.818zM270.109 29.382v-22.255h6.109v8.291h7.855v-8.291h6.109v22.255h-6.109v-8.436h-7.855v8.436h-6.109zM292.509 29.382l9.455-22.4h5.964l9.455 22.4h-6.691l-1.6-3.927h-8.582l-1.6 3.927h-6.4zM302.4 20.655h4.945l-2.473-6.4-2.473 6.4zM320.873 29.673c-1.455 0-2.618-0.145-3.636-0.582l0.436-4.8c0.436 0.145 0.873 0.145 1.455 0.145 0.436 0 0.727 0 1.018-0.145s0.582-0.436 0.873-1.018c0.291-0.582 0.582-1.309 0.727-2.327s0.291-2.327 0.436-4.218c0.145-1.891 0.145-4.073 0.145-6.691v-2.909h17.164v22.255h-6.109v-16.873h-5.236v0.873c0 2.618-0.145 4.945-0.291 6.836-0.291 1.891-0.582 3.491-1.018 4.8-0.436 1.164-0.873 2.182-1.6 2.909-0.582 0.727-1.309 1.164-2.036 1.455-0.582 0.145-1.455 0.291-2.327 0.291zM343.418 29.382v-22.255h6.109v12.509l8.582-12.509h5.818v22.255h-6.109v-12.509l-8.582 12.509h-5.818zM378.909 29.382v-26.764h6.982l8.291 13.382v-13.382h7.709v26.764h-6.545l-8.727-13.964v13.964h-7.709zM415.127 17.018c-1.164 1.309-2.618 1.891-4.364 1.891s-3.345-0.582-4.364-1.891c-1.164-1.164-1.745-2.764-1.745-4.509 0-1.891 0.582-3.345 1.745-4.655s2.618-1.891 4.509-1.891c1.745 0 3.345 0.582 4.364 1.891 1.164 1.164 1.745 2.764 1.745 4.509-0.145 1.891-0.727 3.491-1.891 4.655zM405.091 25.164v-4.509h11.491v4.509h-11.491zM409.455 14.4c0.436 0.582 0.873 0.727 1.455 0.727s1.018-0.291 1.309-0.727c0.291-0.436 0.582-1.164 0.582-1.891s-0.145-1.309-0.582-1.891c-0.436-0.582-0.873-0.727-1.455-0.727s-1.018 0.291-1.309 0.727c-0.291 0.582-0.582 1.164-0.582 1.891s0.145 1.455 0.582 1.891zM424.727 29.382v-20.073l-4.509 1.018-1.455-5.673 7.855-2.182h5.382v26.909h-7.273z"></path>
</symbol>
</defs>
</svg>
